<svg xmlns="http://www.w3.org/2000/svg" xmlns:xlink="http://www.w3.org/1999/xlink" xml:space="preserve" width="41.9098mm" height="16.7638mm" version="1.1" style="shape-rendering:geometricPrecision; text-rendering:geometricPrecision; image-rendering:optimizeQuality; fill-rule:evenodd; clip-rule:evenodd" viewBox="0 0 4191 1676">
 <defs>
  <style type="text/css">
   <![CDATA[
    .str0 {stroke:#FEFEFE;stroke-width:7.62}
    .fil0 {fill:none}
    .fil3 {fill:black}
    .fil1 {fill:#8C8C8C}
    .fil5 {fill:#BA0D10}
    .fil4 {fill:#FEFEFE;fill-rule:nonzero}
    .fil2 {fill:black;fill-rule:nonzero}
   ]]>
  </style>
 </defs>
 <g id="Layer_x0020_1">
  <metadata id="CorelCorpID_0Corel-Layer"/>
  <g id="_2455495666272">
   <polygon class="fil0" points="0,0 4191,0 4191,1676 0,1676 "/>
   <path class="fil1" d="M1026 1174l0 -646c-32,-5 -69,-14 -102,-20 -167,-32 -343,-70 -508,-100 -65,-11 -147,-36 -212,-31 -75,19 -128,51 -152,141 -16,56 -8,227 -8,296 0,102 -1,204 -1,306 0,98 -4,208 1,305l207 -20c1,1 1,2 1,3 0,1 1,2 1,3l19 219 160 -183c8,-10 46,-58 54,-61l406 -42c46,-5 73,-32 93,-59 25,-33 32,-62 41,-111z"/>
   <path class="fil2 str0" d="M1513 623l0 0c19,15 48,32 84,33l0 0c23,0 45,-7 62,-19l0 0c17,-12 29,-32 29,-55l0 0c0,-11 -3,-22 -8,-31l0 0c-9,-13 -21,-22 -34,-28l0 0c-14,-6 -28,-11 -44,-14l0 0 -1 0 0 0c-16,-3 -28,-7 -34,-11l0 0c-4,-2 -5,-4 -6,-5l0 0c0,-2 0,-2 0,-4l0 0c0,-2 1,-6 7,-11l0 0c6,-4 17,-8 28,-8l0 0c15,0 29,7 44,17l0 0c12,8 27,5 35,-6l0 0c7,-12 4,-28 -8,-35l0 0 0 0c-15,-11 -38,-26 -71,-26l0 0c-21,0 -41,6 -58,17l0 0c-15,12 -28,30 -28,52l0 0c0,11 3,21 8,30l0 0c9,13 20,21 33,27l0 0c12,6 27,10 41,13l1 0 0 0 0 0 0 0c17,3 31,8 37,13l0 0c4,2 6,4 7,5l0 0c0,2 1,3 1,5l0 0c0,4 -2,9 -9,14l0 0c-7,5 -19,9 -32,9l0 0c-18,1 -39,-10 -52,-20l0 0c-10,-9 -27,-8 -35,3l0 0c-9,11 -7,27 3,35zm309 33c34,0 62,-10 85,-31 11,-10 6,-24 0,-31 -6,-8 -26,-9 -36,1 -11,9 -32,14 -49,12 -16,-1 -35,-10 -45,-21 -8,-8 -14,-20 -16,-31l150 0c13,0 23,-8 25,-19 0,-1 0,-3 0,-4 0,0 0,0 0,0 0,0 0,0 0,0 0,-1 0,-2 0,-3 -4,-63 -52,-109 -114,-109 -64,0 -114,54 -115,118 1,64 51,117 115,118zm0 -191c41,3 66,31 70,50l-133 0c3,-20 23,-49 63,-50zm163 -114l0 279c0,14 11,26 26,26 14,0 26,-12 26,-26l0 -279c0,-14 -12,-26 -26,-26 -15,0 -26,12 -26,26zm284 94c0,-14 -12,-25 -25,-25 -13,0 -22,9 -25,21 -18,-13 -39,-21 -63,-21 -32,0 -60,13 -80,35 -20,21 -32,51 -32,83 0,32 12,62 32,83 20,22 48,35 80,35 0,0 0,0 0,0 24,0 45,-8 63,-20 3,11 12,20 25,20 13,0 25,-11 25,-25l0 -93c0,0 0,0 0,0 0,0 0,0 0,0l0 -93zm-69 142c-11,12 -27,18 -44,18 -17,0 -33,-6 -44,-18 -11,-12 -18,-29 -18,-49 0,-20 7,-37 18,-48 11,-13 27,-20 44,-20 17,0 33,7 44,20 12,11 19,28 19,48 0,20 -7,37 -19,49zm123 36l0 0c19,15 47,32 84,33l0 0c23,0 45,-7 62,-19l0 0c17,-12 29,-32 29,-55l0 0c0,-11 -3,-22 -9,-31l0 0c-8,-13 -20,-22 -33,-28l0 0c-14,-6 -28,-11 -44,-14l0 0 -1 0 0 0c-16,-3 -28,-7 -34,-11l0 0c-4,-2 -5,-4 -6,-5l0 0c-1,-2 -1,-2 -1,-4l0 0c0,-2 2,-6 8,-11l0 0c6,-4 17,-8 28,-8l0 0c15,0 29,7 44,17l0 0c12,8 27,5 35,-6l0 0c7,-12 3,-28 -8,-35l0 0 0 0c-15,-11 -38,-26 -71,-26l0 0c-21,0 -41,6 -58,17l0 0c-15,12 -28,30 -28,52l0 0c0,11 3,21 8,30l0 0c9,13 20,21 33,27l0 0c12,6 26,10 41,13l1 0 0 0 0 0 0 0c17,3 31,8 37,13l0 0c4,2 6,4 6,5l0 0c1,2 2,3 2,5l0 0c0,4 -2,9 -9,14l0 0c-7,5 -19,9 -32,9l0 0c-18,1 -39,-10 -52,-20l0 0c-10,-9 -27,-8 -35,3l0 0c-9,11 -7,27 3,35zm309 33c34,0 62,-10 85,-31 11,-10 6,-24 0,-31 -6,-8 -26,-9 -36,1 -11,9 -32,14 -49,12 -16,-1 -35,-10 -45,-21 -9,-8 -14,-20 -16,-31l150 0c13,0 23,-8 25,-19 0,-1 0,-3 0,-4 0,0 0,0 0,0 0,0 0,0 0,0 0,-1 0,-2 0,-3 -4,-63 -52,-109 -114,-109 -64,0 -114,54 -115,118 1,64 51,117 115,118zm0 -191c41,3 65,31 70,50l-133 0c3,-20 23,-49 63,-50z"/>
   <path class="fil2 str0" d="M1547 1072c15,0 27,-12 27,-26l0 -41 26 -26 69 84c5,6 12,9 20,9 6,0 12,-2 16,-6 12,-9 13,-25 4,-37l-72 -87 70 -71c11,-10 11,-26 0,-37 -10,-10 -27,-10 -36,0l-97 97 0 -163c0,-14 -12,-26 -27,-26 -14,0 -26,12 -26,26l0 278c0,14 12,26 26,26zm300 2c0,0 0,0 0,0 31,0 59,-14 79,-36 21,-21 33,-50 33,-83l0 0c0,-32 -12,-60 -33,-83 -20,-22 -48,-36 -79,-36 -33,0 -60,14 -81,36 -21,23 -33,51 -33,83 0,33 12,62 33,83 21,22 48,36 81,36zm-45 -168c11,-11 27,-18 45,-18 16,0 32,7 43,18 12,12 19,29 19,49l0 0c0,20 -7,37 -19,50 -11,11 -27,17 -43,17 -18,0 -34,-6 -45,-17 -11,-13 -17,-30 -17,-50 0,-20 6,-37 17,-49zm366 -64c-12,-5 -27,1 -32,14l-55 128 -54 -128c-6,-13 -20,-19 -32,-14 -13,6 -19,20 -13,32l76 184c1,1 1,2 2,3 0,0 0,0 1,0 1,1 2,3 2,4 0,0 0,0 1,0 1,2 2,2 3,3 0,0 0,0 0,1 2,0 3,1 4,2 0,0 0,0 1,0 0,0 0,0 0,0 2,0 3,1 4,1 1,0 1,0 1,0 2,0 3,0 4,0 0,0 0,0 0,0 2,1 3,1 5,0 1,0 1,0 1,0 1,0 2,-1 4,-1 0,0 0,0 0,0 1,0 1,0 1,0 1,-1 2,-2 3,-2 0,-1 1,-1 1,-1 1,-1 1,-1 2,-3 0,0 1,0 1,0 1,-1 2,-3 3,-4 0,0 0,0 0,0 1,-1 2,-2 2,-3l78 -184c5,-12 -1,-26 -14,-32zm156 230c34,0 62,-10 85,-31 11,-10 6,-24 0,-31 -6,-7 -26,-9 -36,2 -11,9 -32,13 -49,12 -16,-2 -35,-10 -45,-22 -8,-8 -14,-20 -16,-31l150 0c13,0 23,-7 25,-19 0,-1 0,-3 0,-4 0,0 0,0 0,0 0,0 0,0 0,0 0,-1 0,-2 0,-2 -4,-64 -52,-110 -114,-110 -64,0 -114,54 -115,118 1,64 51,118 115,118zm0 -191c41,3 66,31 70,50l-133 0c3,-19 23,-48 63,-50zm174 75l89 0c15,0 28,-13 28,-28 0,-16 -13,-29 -28,-29l-89 0c-15,0 -27,13 -27,29 0,15 12,28 27,28zm140 84l0 0c19,15 47,32 84,32l0 0c23,0 44,-7 61,-19l0 0c17,-12 30,-31 30,-54l0 0c0,-11 -3,-22 -9,-32l0 0c-8,-13 -21,-22 -33,-27l0 0c-14,-7 -29,-11 -44,-14l-1 0 0 -1 0 0c-16,-2 -29,-7 -35,-11l0 0c-3,-2 -4,-4 -5,-5l0 0c-1,-1 -1,-2 -1,-3l0 0c0,-3 2,-7 8,-11l0 0c6,-5 16,-9 28,-9l0 0c15,0 28,8 44,18l0 0c11,8 27,4 34,-7l0 0c8,-12 4,-27 -7,-35l0 0 0 0c-15,-10 -38,-26 -71,-26l0 0c-22,0 -41,6 -58,18l0 0c-16,11 -28,30 -28,52l0 0c0,10 3,21 8,29l0 0c9,13 20,22 33,28l0 0c12,5 26,9 41,12l0 0 0 0 0 0 0 0c17,3 31,9 38,13l0 0c4,3 6,4 6,6l0 0c1,1 2,2 2,5l0 0c0,3 -2,8 -9,14l0 0c-7,5 -19,9 -32,9l0 0c-18,0 -40,-11 -52,-21l0 0c-10,-9 -27,-8 -35,4l0 0c-9,10 -7,26 3,35zm309 32c34,0 61,-10 85,-31 10,-10 6,-24 0,-31 -7,-7 -26,-9 -36,2 -12,9 -32,13 -49,12 -16,-2 -35,-10 -45,-22 -9,-8 -14,-20 -16,-31l150 0c13,0 23,-7 24,-19 1,-1 1,-3 1,-4 0,0 0,0 0,0 0,0 0,0 0,0 0,-1 0,-2 0,-2 -4,-64 -53,-110 -114,-110 -65,0 -115,54 -115,118 0,64 50,118 115,118zm0 -191c41,3 65,31 70,50l-134 0c4,-19 24,-48 64,-50zm326 -45c-14,0 -24,11 -24,25l0 112c0,28 -22,48 -49,48 -27,0 -49,-20 -49,-48l0 -112c0,-14 -11,-25 -25,-25 -13,0 -25,11 -25,25l0 112c0,54 45,99 99,99 16,0 32,-3 45,-11 -8,24 -31,42 -59,42 -10,0 -19,-2 -28,-6 -11,-6 -27,-1 -33,10 -6,13 -1,28 12,34 14,7 32,12 49,12 63,0 113,-50 113,-113l0 -67c0,0 0,0 0,0l0 -112c0,-14 -12,-25 -26,-25zm216 1c-24,-1 -44,8 -60,18 -3,2 -7,6 -10,10l0 -4c0,-13 -11,-24 -26,-24 -13,0 -25,11 -25,24l0 186c0,14 12,25 25,25 15,0 26,-11 26,-25l0 -89c3,-7 8,-25 20,-40 5,-9 12,-17 21,-23 8,-6 18,-9 29,-9 14,0 25,-12 25,-25 0,-13 -11,-24 -25,-24zm245 25c0,-14 -12,-26 -25,-26 -13,0 -22,9 -25,21 -18,-13 -39,-21 -63,-21 -32,0 -60,14 -80,36 -20,21 -32,50 -32,83 0,32 12,61 32,83 20,21 48,34 80,34 0,0 0,0 0,0 24,0 45,-7 63,-20 3,11 12,20 25,20 13,0 25,-11 25,-25l0 -92c0,0 0,0 0,0 0,0 0,0 0,0l0 -93zm-69 141c-11,12 -27,19 -44,19 -17,0 -33,-7 -44,-19 -11,-12 -18,-29 -18,-48 0,-20 7,-37 18,-49 11,-13 27,-19 44,-19 17,0 33,6 44,19 11,12 19,29 19,49 0,19 -8,36 -19,48zm378 -116c26,0 47,21 47,48l0 112c0,14 12,25 26,25 14,0 25,-11 25,-25l0 -112c0,-54 -44,-99 -98,-99 -30,0 -57,12 -74,33 -18,-21 -45,-33 -75,-33 -18,0 -35,5 -50,14 -4,-9 -13,-14 -23,-14 -13,0 -25,11 -25,26l0 73c0,0 0,0 0,0l0 112c0,13 9,22 21,25 1,0 2,0 4,0 10,0 20,-6 24,-15 0,0 0,0 0,0 0,-1 0,-2 0,-2 1,-1 1,-2 1,-3 0,0 0,-1 0,-1 0,-1 1,-3 1,-4l0 0 0 -112c0,-27 21,-48 47,-48 27,0 49,21 49,47 0,0 0,1 0,1l0 112c0,14 12,25 26,25 0,0 0,0 0,0 0,0 0,0 0,0 13,0 25,-11 25,-25l0 -112c0,0 0,-1 0,-1 1,-26 22,-47 49,-47z"/>
   <path class="fil3" d="M1410 1015l1 -785c-42,-5 -90,-16 -133,-24 -217,-38 -446,-85 -660,-120 -83,-14 -190,-45 -275,-38 -97,23 -166,62 -198,170 -20,68 -10,276 -10,361 0,123 -1,247 -1,370 0,120 -5,253 1,371l269 -24c0,0 0,1 1,1l607 -53 224 -22c60,-6 96,-39 122,-71 32,-41 40,-76 52,-136z"/>
   <path class="fil4" d="M433 925l0 0c54,43 134,91 238,92l0 0c65,0 125,-20 173,-53l0 0c48,-35 84,-90 84,-155l0 0c0,-31 -9,-62 -25,-88l0 0c-23,-38 -59,-63 -95,-79l0 0c-38,-19 -80,-31 -124,-39l-1 0 -2 -1 0 0c-45,-8 -80,-20 -97,-32l0 0c-9,-5 -13,-11 -15,-13l0 0c-2,-4 -2,-6 -2,-11l0 0c0,-7 4,-19 21,-31l0 0c17,-13 47,-24 80,-24l0 0c43,0 80,21 123,50l0 0c33,22 77,13 99,-19l0 0c20,-34 10,-78 -22,-99l0 0 0 0c-42,-29 -108,-73 -200,-73l0 0c-61,0 -117,17 -164,49l0 0c-44,33 -79,85 -79,147l0 0c0,31 8,60 23,84l0 0c24,36 56,60 92,77l0 0c35,16 75,27 116,35l1 0 0 0 0 0 0 0c48,9 89,24 107,37l0 0c11,7 16,12 18,16l0 0c2,5 4,7 4,14l0 0c0,11 -6,24 -24,40l0 0c-22,13 -55,25 -91,25l0 0c-52,2 -112,-29 -147,-58l0 0c-29,-26 -76,-22 -100,10l0 0c-24,30 -20,75 9,99z"/>
   <polygon class="fil5" points="1125,832 989,908 1000,830 993,750 "/>
  </g>
 </g>
</svg>